<svg width="46" height="46" viewBox="0 0 46 46" fill="none" xmlns="http://www.w3.org/2000/svg">
<path d="M14.9526 3.83398H31.0526C37.1859 3.83398 42.1693 8.81732 42.1693 14.9507V31.0507C42.1693 33.999 40.9981 36.8265 38.9133 38.9113C36.8285 40.9961 34.0009 42.1673 31.0526 42.1673H14.9526C8.81927 42.1673 3.83594 37.184 3.83594 31.0507V14.9507C3.83594 12.0023 5.00715 9.17476 7.09193 7.08998C9.17671 5.0052 12.0043 3.83398 14.9526 3.83398ZM14.5693 7.66732C12.7393 7.66732 10.9842 8.39428 9.69023 9.68828C8.39623 10.9823 7.66927 12.7373 7.66927 14.5673V31.434C7.66927 35.2481 10.7551 38.334 14.5693 38.334H31.4359C33.2659 38.334 35.021 37.607 36.315 36.313C37.609 35.019 38.3359 33.264 38.3359 31.434V14.5673C38.3359 10.7532 35.2501 7.66732 31.4359 7.66732H14.5693ZM33.0651 10.5423C33.7005 10.5423 34.3099 10.7947 34.7592 11.244C35.2085 11.6933 35.4609 12.3027 35.4609 12.9382C35.4609 13.5736 35.2085 14.183 34.7592 14.6323C34.3099 15.0816 33.7005 15.334 33.0651 15.334C32.4297 15.334 31.8203 15.0816 31.371 14.6323C30.9217 14.183 30.6693 13.5736 30.6693 12.9382C30.6693 12.3027 30.9217 11.6933 31.371 11.244C31.8203 10.7947 32.4297 10.5423 33.0651 10.5423ZM23.0026 13.4173C25.5443 13.4173 27.9818 14.427 29.779 16.2242C31.5763 18.0214 32.5859 20.459 32.5859 23.0007C32.5859 25.5423 31.5763 27.9799 29.779 29.7771C27.9818 31.5743 25.5443 32.584 23.0026 32.584C20.4609 32.584 18.0234 31.5743 16.2262 29.7771C14.4289 27.9799 13.4193 25.5423 13.4193 23.0007C13.4193 20.459 14.4289 18.0214 16.2262 16.2242C18.0234 14.427 20.4609 13.4173 23.0026 13.4173ZM23.0026 17.2507C21.4776 17.2507 20.0151 17.8565 18.9367 18.9348C17.8584 20.0131 17.2526 21.4757 17.2526 23.0007C17.2526 24.5256 17.8584 25.9882 18.9367 27.0665C20.0151 28.1448 21.4776 28.7507 23.0026 28.7507C24.5276 28.7507 25.9901 28.1448 27.0685 27.0665C28.1468 25.9882 28.7526 24.5256 28.7526 23.0007C28.7526 21.4757 28.1468 20.0131 27.0685 18.9348C25.9901 17.8565 24.5276 17.2507 23.0026 17.2507Z" fill="white"/>
</svg>
